ffmpeg started on 2025-06-30 at 14:39:42
Report written to "D:\Convert\FFMetrics\reports\ssim_report-6.txt"
Log level: 32
Command line:
ffmpeg -hide_banner -nostdin -i "G:\\\xc0\xed\xe8\xec\xe5\\\xce\xed\xe3\xee\xe8\xed\xe3\xe8\\!_37_\xc7\xe8\xec\xe0_2025\\JamClub\\\xc3\xee\xf1\xef\xee\xe4\xe8\xed \xe8 \xef\xb8\xf1\\JamClub_Tono_to_Inu_Woof_Woof!_S01E08_1080p_HEVC.mkv" -i "G:\\\xc0\xed\xe8\xec\xe5\\\xce\xed\xe3\xee\xe8\xed\xe3\xe8\\!_37_\xc7\xe8\xec\xe0_2025\\JamClub\\\xc3\xee\xf1\xef\xee\xe4\xe8\xed \xe8 \xef\xb8\xf1\\JamClub_Tono_to_Inu_Woof_Woof!_S01E08_1080p.mp4" -lavfi "[0:v]settb=AVTB,setpts=PTS-STARTPTS,format=pix_fmts=yuv420p10,fps=24000/1001,scale=1920:1080:flags=bicubic[main];[1:v]settb=AVTB,setpts=PTS-STARTPTS,format=pix_fmts=yuv420p,fps=24000/1001,scale=1920:1080:flags=bicubic[ref];[main][ref]ssim=eof_action=endall:stats_file='D\\:/Convert/FFMetrics/logs/ssim_logfile-6.txt'" -f null -
Input #0, matroska,webm, from 'G:\Аниме\Онгоинги\!_37_Зима_2025\JamClub\Господин и пёс\JamClub_Tono_to_Inu_Woof_Woof!_S01E08_1080p_HEVC.mkv':
  Metadata:
    COMPATIBLE_BRANDS: isomiso2avc1mp41
    MAJOR_BRAND     : isom
    MINOR_VERSION   : 512
    ENCODER         : Lavf61.7.100
  Duration: 00:02:53.23, start: -0.021000, bitrate: 2277 kb/s
  Stream #0:0: Video: hevc (Main 10), yuv420p10le(tv, bt709, progressive), 1920x1080 [SAR 1:1 DAR 16:9], 23.98 fps, 23.98 tbr, 1k tbn (default)
      Metadata:
        HANDLER_NAME    : VideoHandler
        VENDOR_ID       : [0][0][0][0]
        ENCODER         : Lavc61.19.100 libx265
        BPS             : 2091347
        DURATION        : 00:02:52.129708333
        NUMBER_OF_FRAMES: 4127
        NUMBER_OF_BYTES : 44997686
        _STATISTICS_WRITING_APP: mkvpropedit v66.0.0 ('Josie') 64-bit
        _STATISTICS_WRITING_DATE_UTC: 2025-06-28 15:53:26
        _STATISTICS_TAGS: BPS DURATION NUMBER_OF_FRAMES NUMBER_OF_BYTES
  Stream #0:1(eng): Audio: aac (LC), 48000 Hz, stereo, fltp (default)
      Metadata:
        HANDLER_NAME    : SoundHandler
        VENDOR_ID       : [0][0][0][0]
        ENCODER         : Lavc61.19.100 aac
        BPS             : 194788
        DURATION        : 00:02:53.208000000
        NUMBER_OF_FRAMES: 8120
        NUMBER_OF_BYTES : 4217365
        _STATISTICS_WRITING_APP: mkvpropedit v66.0.0 ('Josie') 64-bit
        _STATISTICS_WRITING_DATE_UTC: 2025-06-28 15:53:26
        _STATISTICS_TAGS: BPS DURATION NUMBER_OF_FRAMES NUMBER_OF_BYTES
Input #1, mov,mp4,m4a,3gp,3g2,mj2, from 'G:\Аниме\Онгоинги\!_37_Зима_2025\JamClub\Господин и пёс\JamClub_Tono_to_Inu_Woof_Woof!_S01E08_1080p.mp4':
  Metadata:
    major_brand     : isom
    minor_version   : 512
    compatible_brands: isomiso2avc1mp41
    encoder         : Lavf60.16.100
  Duration: 00:02:53.21, start: 0.000000, bitrate: 5279 kb/s
  Stream #1:0[0x1](und): Video: h264 (High) (avc1 / 0x31637661), yuv420p(tv, bt709, progressive), 1920x1080 [SAR 1:1 DAR 16:9], 5113 kb/s, 23.98 fps, 23.98 tbr, 90k tbn (default)
      Metadata:
        handler_name    : VideoHandler
        vendor_id       : [0][0][0][0]
  Stream #1:1[0x2](eng): Audio: aac (LC) (mp4a / 0x6134706D), 48000 Hz, stereo, fltp, 191 kb/s (default)
      Metadata:
        handler_name    : SoundHandler
        vendor_id       : [0][0][0][0]
Stream mapping:
  Stream #0:0 (hevc) -> settb:default
  Stream #1:0 (h264) -> settb:default
  ssim:default -> Stream #0:0 (wrapped_avframe)
  Stream #0:1 -> #0:1 (aac (native) -> pcm_s16le (native))
Output #0, null, to 'pipe:':
  Metadata:
    COMPATIBLE_BRANDS: isomiso2avc1mp41
    MAJOR_BRAND     : isom
    MINOR_VERSION   : 512
    encoder         : Lavf61.7.100
  Stream #0:0: Video: wrapped_avframe, yuv420p10le(tv, bt709, progressive), 1920x1080 [SAR 1:1 DAR 16:9], q=2-31, 200 kb/s, 23.98 fps, 23.98 tbn
      Metadata:
        encoder         : Lavc61.19.100 wrapped_avframe
  Stream #0:1(eng): Audio: pcm_s16le, 48000 Hz, stereo, s16, 1536 kb/s (default)
      Metadata:
        HANDLER_NAME    : SoundHandler
        VENDOR_ID       : [0][0][0][0]
        _STATISTICS_TAGS: BPS DURATION NUMBER_OF_FRAMES NUMBER_OF_BYTES
        BPS             : 194788
        DURATION        : 00:02:53.208000000
        NUMBER_OF_FRAMES: 8120
        NUMBER_OF_BYTES : 4217365
        _STATISTICS_WRITING_APP: mkvpropedit v66.0.0 ('Josie') 64-bit
        _STATISTICS_WRITING_DATE_UTC: 2025-06-28 15:53:26
        encoder         : Lavc61.19.100 pcm_s16le
frame=  117 fps=0.0 q=-0.0 size=N/A time=00:00:04.87 bitrate=N/A speed=9.52x    frame=  280 fps=274 q=-0.0 size=N/A time=00:00:11.67 bitrate=N/A speed=11.4x    frame=  479 fps=310 q=-0.0 size=N/A time=00:00:19.97 bitrate=N/A speed=12.9x    frame=  698 fps=340 q=-0.0 size=N/A time=00:00:29.11 bitrate=N/A speed=14.2x    frame=  905 fps=351 q=-0.0 size=N/A time=00:00:37.74 bitrate=N/A speed=14.7x    frame= 1112 fps=361 q=-0.0 size=N/A time=00:00:46.37 bitrate=N/A speed=  15x    frame= 1318 fps=365 q=-0.0 size=N/A time=00:00:54.97 bitrate=N/A speed=15.2x    frame= 1527 fps=371 q=-0.0 size=N/A time=00:01:03.68 bitrate=N/A speed=15.5x    frame= 1741 fps=376 q=-0.0 size=N/A time=00:01:12.61 bitrate=N/A speed=15.7x    frame= 1937 fps=377 q=-0.0 size=N/A time=00:01:20.78 bitrate=N/A speed=15.7x    frame= 2165 fps=382 q=-0.0 size=N/A time=00:01:30.29 bitrate=N/A speed=15.9x    frame= 2377 fps=385 q=-0.0 size=N/A time=00:01:39.14 bitrate=N/A speed=16.1x    frame= 2602 fps=389 q=-0.0 size=N/A time=00:01:48.52 bitrate=N/A speed=16.2x    frame= 2832 fps=392 q=-0.0 size=N/A time=00:01:58.11 bitrate=N/A speed=16.4x    frame= 2978 fps=385 q=-0.0 size=N/A time=00:02:04.20 bitrate=N/A speed=16.1x    frame= 3177 fps=386 q=-0.0 size=N/A time=00:02:12.50 bitrate=N/A speed=16.1x    frame= 3389 fps=387 q=-0.0 size=N/A time=00:02:21.34 bitrate=N/A speed=16.1x    frame= 3561 fps=384 q=-0.0 size=N/A time=00:02:28.52 bitrate=N/A speed=  16x    frame= 3758 fps=384 q=-0.0 size=N/A time=00:02:36.73 bitrate=N/A speed=  16x    frame= 3967 fps=385 q=-0.0 size=N/A time=00:02:45.45 bitrate=N/A speed=16.1x    [Parsed_ssim_10 @ 000001bd6342ef80] SSIM Y:0.992595 (21.304848) U:0.992282 (21.125022) V:0.992953 (21.520000) All:0.992603 (21.309235)
[out#0/null @ 000001bd62ca0f40] video:1773KiB audio:32480KiB subtitle:0KiB other streams:0KiB global headers:0KiB muxing overhead: unknown
frame= 4127 fps=388 q=-0.0 Lsize=N/A time=00:02:52.13 bitrate=N/A speed=16.2x    
